<svg width="147" height="448" viewBox="0 0 147 448" fill="none" xmlns="http://www.w3.org/2000/svg">
    <path d="M96.325 141.48C83.441 141.48 72.6705 142.734 64.0134 145.2C55.3564 147.667 48.2031 151.468 42.4723 156.563C36.7416 161.657 32.149 167.925 28.613 175.365C25.1177 182.805 21.7442 191.458 18.4927 201.364L0 260.197C1.74767 271.801 3.12947 287.005 3.98298 304.553C20.4436 309.689 32.3521 324.932 32.3521 342.966C32.3521 361 20.6875 375.88 4.55205 381.177C4.2269 390.477 3.77988 399.251 3.21087 407.379C7.3565 407.015 11.0143 406.449 14.0626 405.559C19.0211 404.104 23.1261 401.394 26.3776 397.472C29.5884 393.55 32.5147 388.294 35.1566 381.743C37.7984 375.193 40.5621 366.823 43.4884 356.593L62.8347 291.453V447.571H146.357V141.48H96.2437H96.325Z" fill="#28272A"/>
    <path d="M82.508 128.016C118.041 128.016 146.847 99.3588 146.847 64.0081C146.847 28.6574 118.041 0 82.508 0C46.9748 0 18.1694 28.6574 18.1694 64.0081C18.1694 99.3588 46.9748 128.016 82.508 128.016Z" fill="#28272A"/>
</svg>
