<svg width="147" height="448" viewBox="0 0 147 448" fill="none" xmlns="http://www.w3.org/2000/svg">
    <path d="M141.805 381.219C125.67 375.922 114.005 360.84 114.005 343.008C114.005 325.177 125.954 309.69 142.374 304.595C143.228 287.532 144.569 272.692 146.235 261.209L127.417 201.406C124.491 191.5 121.199 182.806 117.541 175.407C113.883 167.967 109.168 161.699 103.478 156.605C97.7475 151.51 90.6755 147.709 82.181 145.242C73.6865 142.776 62.8347 141.522 49.6662 141.522H0V447.613H83.5223V291.495L102.869 356.635C106.079 366.824 108.884 375.235 111.241 381.785C113.558 388.336 116.443 393.592 119.817 397.514C123.19 401.436 127.377 404.146 132.335 405.601C135.383 406.491 139.041 407.097 143.187 407.421C142.618 399.293 142.171 390.519 141.846 381.219H141.805Z" fill="#7C1A12" fill-opacity="0.5"/>
    <path d="M65.1114 128.016C100.645 128.016 129.45 99.3588 129.45 64.0081C129.45 28.6574 100.645 0 65.1114 0C29.5781 0 0.772705 28.6574 0.772705 64.0081C0.772705 99.3588 29.5781 128.016 65.1114 128.016Z" fill="#7C1A12" fill-opacity="0.5"/>
</svg>
