<svg width="42" height="60" viewBox="0 0 42 60" fill="none" xmlns="http://www.w3.org/2000/svg">
  <path d="M9.10915 17.2845C13.826 17.2845 17.6497 13.4804 17.6497 8.78789C17.6497 4.09533 13.826 0.29126 9.10915 0.29126C4.39234 0.29126 0.568604 4.09533 0.568604 8.78789C0.568604 13.4804 4.39234 17.2845 9.10915 17.2845Z" fill="#F96E3E"/>
  <path d="M32.9937 17.2845C37.7105 17.2845 41.5342 13.4804 41.5342 8.78789C41.5342 4.09533 37.7105 0.29126 32.9937 0.29126C28.2768 0.29126 24.4531 4.09533 24.4531 8.78789C24.4531 13.4804 28.2768 17.2845 32.9937 17.2845Z" fill="#F96E3E"/>
  <path d="M34.8278 19.0719C33.1175 19.0719 31.6878 19.2383 30.5386 19.5657C29.3895 19.8931 28.4399 20.3977 27.6792 21.0739C26.9185 21.7502 26.3088 22.5822 25.8395 23.5698C25.3755 24.5574 24.9277 25.706 24.4961 27.0211L22.0413 34.8306C22.2733 36.3711 22.4567 38.3892 22.57 40.7187C24.755 41.4004 26.3358 43.4239 26.3358 45.8177C26.3358 48.2116 24.7874 50.1868 22.6455 50.89C22.6024 52.1245 22.543 53.2892 22.4675 54.3681C23.0178 54.3197 23.5033 54.2446 23.908 54.1265C24.5662 53.9333 25.1111 53.5737 25.5427 53.053C25.9689 52.5324 26.3574 51.8346 26.7081 50.9651C27.0588 50.0956 27.4256 48.9845 27.8141 47.6266L30.3822 38.9797V59.7033H41.4692V19.0719H34.817H34.8278Z" fill="#F96E3E"/>
  <path d="M19.2898 50.8955C17.1479 50.1923 15.5995 48.1903 15.5995 45.8232C15.5995 43.4562 17.1857 41.4005 19.3653 40.7242C19.4786 38.4591 19.6566 36.4893 19.8778 34.965L17.3799 27.0265C16.9914 25.7115 16.5544 24.5575 16.0689 23.5753C15.5833 22.5877 14.9575 21.7557 14.2021 21.0794C13.4414 20.4031 12.5027 19.8986 11.3751 19.5712C10.2475 19.2438 8.80697 19.0774 7.05894 19.0774H0.466064V59.7088H11.5531V38.9852L14.1212 47.6321C14.5474 48.9847 14.9197 50.1011 15.2326 50.9706C15.5401 51.8401 15.9232 52.5379 16.371 53.0585C16.8188 53.5792 17.3745 53.9388 18.0327 54.132C18.4373 54.2501 18.9229 54.3306 19.4732 54.3735C19.3977 53.2947 19.3383 52.13 19.2952 50.8955H19.2898Z" fill="#F96E3E"/>
</svg>