<svg width="512" height="87" viewBox="0 0 512 87" fill="none" xmlns="http://www.w3.org/2000/svg">
    <path d="M284.71 64.5H300.21C300.21 66.9 302.21 69.5 303.21 70.5C304.377 71 307.71 71.9 311.71 71.5C315.71 71.1 317.377 68 317.71 66.5V26.5H334.21C334.21 35.5 334.11 55.7 333.71 64.5C333.31 73.3 330.21 78.5 328.71 80C324.21 88 303.21 86.5 294.21 83.5C287.01 81.1 284.877 69.8333 284.71 64.5Z" fill="white"/>
    <path d="M333.77 25.4048C334.105 25.4048 334.403 25.5353 334.646 25.7776C334.888 26.0199 335.018 26.3181 335.018 26.6536V55.7489C335.018 60.5764 334.776 64.882 334.273 68.6844C333.77 72.4867 332.633 75.7112 330.862 78.3766C329.091 81.042 326.5 83.0736 323.127 84.4901C319.753 85.9067 315.149 86.615 309.315 86.615C305.439 86.615 301.934 86.2981 298.84 85.6644C295.728 85.0307 293.081 83.8937 290.9 82.2535C288.719 80.6133 287.023 78.3952 285.83 75.5621C284.637 72.729 284.041 69.1317 284.041 64.7515C284.041 64.416 284.171 64.1178 284.414 63.8755C284.656 63.6332 284.954 63.5027 285.29 63.5027H300.257C300.592 63.5027 300.891 63.6332 301.133 63.8755C301.375 64.1178 301.506 64.416 301.506 64.7515C301.506 67.1373 302.121 68.7589 303.332 69.6163C304.544 70.4737 306.389 70.9024 308.812 70.9024C310.751 70.9024 312.26 70.7346 313.341 70.3991C314.422 70.0636 315.224 69.5045 315.746 68.7403C316.268 67.9574 316.585 66.9696 316.696 65.7394C316.808 64.5279 316.864 63.0554 316.864 61.3406L316.696 57.5942V26.6536C316.696 26.3181 316.827 26.0385 317.069 25.7776C317.312 25.5166 317.61 25.4048 317.945 25.4048H333.732H333.77ZM317.982 26.6536V55.7489C317.982 58.2466 318.038 60.4832 318.15 62.4776C318.262 64.472 318.113 66.1867 317.684 67.6406C317.274 69.0758 316.398 70.1941 315.075 70.9583C313.751 71.7411 311.664 72.1325 308.831 72.1325C307.768 72.1325 306.725 72.058 305.662 71.8902C304.618 71.7225 303.686 71.387 302.922 70.8465C302.139 70.3246 301.506 69.579 301.002 68.6098C300.499 67.6406 300.257 66.3545 300.257 64.7515H285.29C285.29 68.6844 285.774 71.9648 286.744 74.6115C287.713 77.2396 289.204 79.3644 291.198 80.9674C293.193 82.5703 295.69 83.7073 298.673 84.3783C301.673 85.0493 305.215 85.3848 309.315 85.3848C313.416 85.3848 316.678 85.0307 319.418 84.341C322.158 83.6514 324.432 82.6635 326.24 81.3961C328.048 80.1286 329.445 78.5816 330.471 76.7736C331.496 74.9657 332.241 72.9713 332.707 70.7905C333.173 68.6098 333.471 66.224 333.583 63.6891C333.695 61.1356 333.751 58.5075 333.751 55.7862V26.6909H317.964L317.982 26.6536Z" fill="#1A1A1A"/>
    <path d="M348.21 26.5H387.21V40.5H359.21V48.5H382.71V63H359.21V68C358.41 69.6 359.544 71 360.21 71.5H387.21V85.5H355.21C353.377 85.5 349.01 85.2 346.21 84C343.41 82.8 342.377 78.1667 342.21 76V38.5C342.21 36.8333 342.41 32.9 343.21 30.5C344.01 28.1 346.877 26.8333 348.21 26.5Z" fill="white"/>
    <path d="M359.808 47.846H382.585C382.92 47.846 383.219 47.9765 383.461 48.2188C383.703 48.4611 383.834 48.7593 383.834 49.0948V62.403C383.834 62.7385 383.703 63.0368 383.461 63.2791C383.219 63.5214 382.92 63.6518 382.585 63.6518H359.808V69.1317C359.808 69.7468 359.845 70.1009 359.939 70.2127C360.013 70.3246 360.367 70.3805 360.982 70.3805H386.76C387.096 70.3805 387.375 70.511 387.636 70.7533C387.878 70.9956 388.009 71.2938 388.009 71.6293V84.8443C388.009 85.1798 387.878 85.4594 387.636 85.7203C387.394 85.9626 387.096 86.0931 386.76 86.0931H352.334C348.345 86.0931 345.549 85.1239 343.928 83.1854C342.306 81.247 341.523 78.4139 341.523 74.7047V36.8677C341.523 33.1586 342.325 30.3068 343.928 28.3497C345.531 26.374 348.327 25.4048 352.334 25.4048H386.76C387.096 25.4048 387.375 25.5353 387.636 25.7776C387.878 26.0199 388.009 26.3181 388.009 26.6536V39.8686C388.009 40.2041 387.878 40.5023 387.636 40.7446C387.394 40.9869 387.096 41.1174 386.76 41.1174H360.982C360.367 41.1174 360.032 41.1733 359.939 41.2851C359.864 41.397 359.808 41.7511 359.808 42.3662V47.846ZM360.964 39.8686H386.741V26.6536H352.315C348.718 26.6536 346.22 27.4923 344.841 29.1885C343.462 30.8846 342.754 33.4382 342.754 36.8863V74.7234C342.754 78.1156 343.443 80.6319 344.841 82.328C346.22 84.0242 348.718 84.8629 352.315 84.8629H386.741V71.6479H360.964C359.976 71.6479 359.324 71.4615 359.007 71.1074C358.709 70.7533 358.541 70.1009 358.541 69.1503V62.4217H382.566V49.1135H358.541V42.3848C358.541 41.4529 358.69 40.8005 359.007 40.4277C359.305 40.0736 359.957 39.8872 360.964 39.8872V39.8686Z" fill="#1A1A1A"/>
    <path d="M410.71 26H394.21C393.877 36.5 393.41 59.2 394.21 66C395.21 74.5 399.71 79.5 403.21 82C406.01 84 412.71 85.5 415.71 86H427.21C430.21 85.5 437.21 83.7 441.21 80.5C445.21 77.3 447.544 67.8333 448.21 63.5V26H431.21V62C431.21 71.2 423.877 72.1667 420.21 71.5C413.01 72.3 410.877 65.5 410.71 62V26Z" fill="white"/>
    <path d="M448.772 59.9054C448.772 64.7329 448.157 68.8521 446.945 72.2444C445.734 75.6553 443.926 78.4138 441.54 80.52C439.154 82.6262 436.191 84.1733 432.649 85.1425C429.108 86.1117 425.026 86.5964 420.422 86.5964C411.326 86.5964 404.504 84.4529 399.975 80.1473C395.427 75.8603 393.153 69.0944 393.153 59.9054V26.6536C393.153 26.3181 393.284 26.0385 393.526 25.7776C393.768 25.5166 394.067 25.4048 394.402 25.4048H410.208C410.543 25.4048 410.823 25.5353 411.084 25.7776C411.326 26.0199 411.457 26.3181 411.457 26.6536V59.9054C411.457 61.5084 411.587 62.9995 411.867 64.3601C412.146 65.7208 412.594 66.8764 413.19 67.8456C413.805 68.8148 414.644 69.5604 415.725 70.0823C416.806 70.6042 418.13 70.8651 419.677 70.8651H422.342C423.945 70.8651 425.268 70.6042 426.293 70.0823C427.318 69.5604 428.157 68.8148 428.791 67.8456C429.425 66.8764 429.872 65.7208 430.114 64.3601C430.357 62.9995 430.487 61.527 430.487 59.9054V26.6536C430.487 26.3181 430.618 26.0385 430.86 25.7776C431.102 25.5166 431.4 25.4048 431.736 25.4048H447.542C447.877 25.4048 448.157 25.5353 448.418 25.7776C448.66 26.0199 448.791 26.3181 448.791 26.6536V59.9054H448.772ZM447.523 26.6536H431.717V59.9054C431.717 62.2912 431.475 64.2669 431.009 65.814C430.543 67.361 429.872 68.6098 429.015 69.5604C428.157 70.511 427.151 71.1633 426.014 71.5547C424.877 71.9462 423.647 72.1325 422.305 72.1325H419.639C418.316 72.1325 417.067 71.9462 415.893 71.5547C414.737 71.1633 413.731 70.511 412.892 69.5604C412.053 68.6098 411.401 67.3796 410.898 65.814C410.394 64.2483 410.152 62.2912 410.152 59.9054V26.6536H394.346V59.9054C394.346 64.006 394.831 67.6406 395.8 70.7905C396.769 73.9405 398.316 76.6059 400.422 78.768C402.529 80.9301 405.213 82.5703 408.493 83.67C411.755 84.7884 415.725 85.3289 420.385 85.3289H421.54C426.2 85.3289 430.152 84.7697 433.432 83.67C436.694 82.5703 439.378 80.9301 441.447 78.768C443.534 76.6059 445.044 73.9405 446.013 70.7905C446.983 67.6219 447.467 64.006 447.467 59.9054V26.6536H447.523Z" fill="#1A1A1A"/>
    <path d="M470.21 26H451.71L468.21 55.5L451.71 85.5H470.21L481.21 65L492.71 85.5H510.71L494.21 55.5L510.71 26H492.21L481.21 46.5L470.21 26Z" fill="white"/>
    <path d="M494.754 55.7489L511.044 84.2665C511.324 84.7697 511.361 85.1984 511.175 85.5526C510.988 85.9067 510.578 86.0931 509.963 86.0931H492.666C492.554 86.0931 492.368 86.0185 492.088 85.8508C491.809 85.683 491.641 85.5526 491.585 85.4407L481.278 66.224L470.97 85.4407C470.914 85.5526 470.747 85.683 470.467 85.8508C470.188 86.0185 470.001 86.0931 469.889 86.0931H452.518C451.903 86.0931 451.511 85.9067 451.306 85.5526C451.101 85.1984 451.157 84.7697 451.437 84.2665L467.727 55.7489L451.437 27.2314C451.157 26.7281 451.12 26.2995 451.306 25.9453C451.493 25.5912 451.903 25.4048 452.518 25.4048H469.889C470.001 25.4048 470.188 25.4793 470.467 25.6471C470.747 25.8148 470.914 25.9453 470.97 26.0571L481.278 45.2552L491.585 26.0571C491.641 25.9453 491.809 25.8148 492.088 25.6471C492.368 25.4793 492.554 25.4048 492.666 25.4048H509.963C510.578 25.4048 510.97 25.5912 511.175 25.9453C511.361 26.2995 511.324 26.7281 511.044 27.2314L494.754 55.7489ZM509.963 26.6536H492.666L481.278 47.9392L469.889 26.6536H452.518L469.144 55.7489L452.518 84.8443H469.889L481.278 63.5586L492.666 84.8443H509.963L493.337 55.7489L509.963 26.6536Z" fill="#1A1A1A"/>
    <path d="M85.6673 40.1108C84.6794 40.1108 84.027 40.2972 83.7102 40.6514C83.412 41.0055 83.2442 41.6578 83.2442 42.6084V49.3371H107.27V62.6453H83.2442V69.3739C83.2442 70.3245 83.3933 70.9582 83.7102 71.331C84.0084 71.6852 84.6608 71.8715 85.6673 71.8715H111.445V85.0865H77.0188C73.4215 85.0865 70.9239 84.2478 69.5446 82.5516C68.1653 80.8555 67.457 78.3206 67.457 74.947V37.11C67.457 33.6804 68.1467 31.1082 69.5446 29.4121C70.9239 27.7159 73.4215 26.8772 77.0188 26.8772H111.445V40.0922H85.6673V40.1108Z" fill="#F96E3E"/>
    <path d="M159.589 71.8717V85.0867H129.319C125.722 85.0867 123.224 84.2479 121.845 82.5518C120.466 80.8557 119.757 78.3208 119.757 74.9471V26.896H135.563V69.3927C135.563 70.3433 135.712 70.977 136.01 71.3498C136.309 71.704 136.961 71.8903 137.968 71.8903H159.589V71.8717Z" fill="#F96E3E"/>
    <path d="M216.289 26.896V85.1053H200.651V75.469H181.452L177.538 85.1053H160.745L178.284 42.7018C179.607 39.4959 180.912 36.8492 182.142 34.7989C183.391 32.7486 184.807 31.1457 186.429 29.9714C188.032 28.8158 189.97 27.9957 192.207 27.567C194.444 27.1197 197.258 26.896 200.651 26.896H216.289ZM200.651 40.2042C198.824 40.4838 197.165 41.5089 195.711 43.2796C194.257 45.0503 192.766 47.7716 191.257 51.4248L186.858 62.2354H200.651V40.2042Z" fill="#F96E3E"/>
    <path d="M279.325 26.896V85.1053H268.179C266.353 85.1053 264.75 84.9749 263.389 84.7326C262.028 84.4902 260.817 84.0616 259.736 83.4465C258.655 82.8314 257.685 81.974 256.828 80.8743C255.971 79.7746 255.132 78.3767 254.293 76.7178L242.066 52.3568V85.124H226.26V26.9146H237.145C239.196 26.9146 240.948 27.0637 242.383 27.3806C243.818 27.6788 245.048 28.1821 246.092 28.8717C247.117 29.5614 248.012 30.456 248.795 31.5744C249.578 32.6927 250.342 34.0161 251.125 35.5631L263.519 60.3342V26.9146H279.325V26.896Z" fill="#F96E3E"/>
    <path d="M13.012 24.3424C19.734 24.3424 25.1833 18.8932 25.1833 12.1712C25.1833 5.44923 19.734 0 13.012 0C6.29006 0 0.84082 5.44923 0.84082 12.1712C0.84082 18.8932 6.29006 24.3424 13.012 24.3424Z" fill="#F96E3E"/>
    <path d="M47.0467 24.3424C53.7687 24.3424 59.2179 18.8932 59.2179 12.1712C59.2179 5.44923 53.7687 0 47.0467 0C40.3247 0 34.8755 5.44923 34.8755 12.1712C34.8755 18.8932 40.3247 24.3424 47.0467 24.3424Z" fill="#F96E3E"/>
    <path d="M49.6748 26.896C47.2331 26.896 45.2014 27.1383 43.5612 27.6042C41.921 28.0702 40.5603 28.7971 39.4793 29.7663C38.3982 30.7356 37.5222 31.9285 36.8512 33.345C36.1802 34.7616 35.5464 36.4018 34.9314 38.2843L31.4272 49.4677C31.7627 51.6671 32.0237 54.5747 32.1914 57.8925C35.3042 58.8617 37.5595 61.7694 37.5595 65.1989C37.5595 68.6285 35.3601 71.4616 32.3033 72.4681C32.2474 74.2388 32.1542 75.8977 32.061 77.4447C32.8438 77.3701 33.5334 77.2769 34.1113 77.0906C35.0432 76.811 35.826 76.3077 36.4411 75.5622C37.0562 74.8166 37.5967 73.8101 38.1 72.5613C38.6032 71.3125 39.1251 69.7282 39.6843 67.7897L43.3375 55.3949V85.0867H59.1433V26.8773H49.6561L49.6748 26.896Z" fill="#F96E3E"/>
    <path d="M27.5319 72.4869C24.4751 71.4804 22.2757 68.61 22.2757 65.2177C22.2757 61.8254 24.531 58.8805 27.6437 57.9113C27.8114 54.6681 28.0538 51.835 28.3706 49.6542L24.8106 38.2845C24.2514 36.402 23.6363 34.7431 22.9467 33.3452C22.2571 31.9286 21.3624 30.7357 20.2813 29.7665C19.2003 28.7973 17.8583 28.0704 16.2553 27.6044C14.6524 27.1384 12.6021 26.8961 10.1045 26.8961H0.710449V85.1054H16.5163V55.4137L20.1695 67.8085C20.7846 69.747 21.3065 71.3499 21.7538 72.5801C22.2011 73.8289 22.7417 74.8168 23.3754 75.581C24.0091 76.3265 24.8106 76.8484 25.7425 77.1093C26.3203 77.2771 27.01 77.3889 27.7928 77.4635C27.681 75.9164 27.6064 74.239 27.5505 72.4869H27.5319Z" fill="#F96E3E"/>
</svg>
